Land_normalized_Precision Landing16_filtered_grf
version=1
nRows=30
nColumns=37
inDegrees=yes
endheader
time		1_ground_force_vx		1_ground_force_vy		1_ground_force_vz		1_ground_force_px		1_ground_force_py		1_ground_force_pz		1_ground_torque_x		1_ground_torque_y		1_ground_torque_z		2_ground_force_vx		2_ground_force_vy		2_ground_force_vz		2_ground_force_px		2_ground_force_py		2_ground_force_pz		2_ground_torque_x		2_ground_torque_y		2_ground_torque_z		3_ground_force_vx		3_ground_force_vy		3_ground_force_vz		3_ground_force_px		3_ground_force_py		3_ground_force_pz		3_ground_torque_x		3_ground_torque_y		3_ground_torque_z		4_ground_force_vx		4_ground_force_vy		4_ground_force_vz		4_ground_force_px		4_ground_force_py		4_ground_force_pz		4_ground_torque_x		4_ground_torque_y		4_ground_torque_z		
1.064500		-3.734678		-32.255467		-20.852377		0.085193		0.000000		0.358891		-0.021530		-0.185953		-0.120214		0.283695		-25.037823		-3.253618		-0.156694		0.000000		0.390776		0.004782		-0.422043		-0.054844		5.775276		-0.158304		-1.413640		0.353142		1.255186		1.891891		-0.004870		0.000133		0.001192		-18.754949		0.908570		-2.834599		-0.289342		1.264853		1.901706		0.004130		-0.000200		0.000624		
1.067808		-1.760363		-42.506320		-43.095905		0.091955		0.000000		0.310597		0.000191		0.007025		0.007634		-0.509509		-42.078311		-21.642313		-0.195236		0.000000		0.331402		-0.028123		-2.316349		-1.192702		5.736415		-0.237318		-1.222433		0.353174		1.255192		1.891873		-0.003057		0.000126		0.000652		-18.721881		0.835509		-2.707550		-0.289327		1.264849		1.901659		0.006504		-0.000290		0.000940		
1.071116		2.752921		-30.626565		-52.855309		0.109620		0.000000		0.222329		-0.018357		0.201211		0.348784		-1.325005		-43.107599		-38.792523		-0.237240		0.000000		0.271984		-0.083296		-2.710597		-2.438773		5.695251		-0.371776		-1.004807		0.353200		1.255202		1.891846		-0.000483		0.000031		0.000086		-18.709722		0.763599		-2.568883		-0.289318		1.264844		1.901608		0.007502		-0.000306		0.001030		
1.074424		8.849920		16.720733		-32.807161		0.051811		0.000000		0.684953		-0.028819		-0.048105		0.113973		-1.314810		-12.380508		-41.849026		-0.317643		0.000000		-0.135669		-0.015510		-0.163604		-0.487215		5.662798		-0.527549		-0.822329		0.353221		1.255213		1.891808		0.001787		-0.000167		-0.000260		-18.711250		0.715264		-2.447767		-0.289309		1.264835		1.901554		0.006900		-0.000263		0.000903		
1.077732		13.862498		105.795900		31.067797		0.081340		0.000000		0.389730		0.132465		1.006262		0.292417		0.869444		61.871743		-15.765016		-0.145387		0.000000		0.453391		-0.035553		-2.696960		0.754079		5.651753		-0.670592		-0.720223		0.353241		1.255221		1.891758		0.003031		-0.000359		-0.000386		-18.721707		0.706538		-2.364018		-0.289295		1.264824		1.901499		0.005268		-0.000199		0.000665		
1.081040		13.817455		230.764153		140.206647		0.085342		0.000000		0.346633		0.034812		0.579619		0.351791		6.883649		180.669869		49.966055		-0.162955		0.000000		0.370742		0.263166		6.902431		1.911483		5.666700		-0.779414		-0.706699		0.353264		1.255226		1.891694		0.003186		-0.000438		-0.000398		-18.739777		0.738663		-2.326677		-0.289268		1.264813		1.901443		0.003625		-0.000143		0.000450		
1.084348		4.642630		375.457778		277.776653		0.089237		0.000000		0.325374		-0.007158		-0.600913		-0.445116		18.459032		332.729439		154.683031		-0.184904		0.000000		0.343524		1.050762		18.934970		8.804993		5.697891		-0.846852		-0.752173		0.353296		1.255227		1.891620		0.002724		-0.000405		-0.000359		-18.761516		0.795486		-2.334483		-0.289227		1.264804		1.901388		0.002949		-0.000125		0.000367		
1.087657		-15.618540		522.126350		408.801297		0.092368		0.000000		0.313727		0.072734		-2.422431		-1.896646		36.861416		499.143809		280.872484		-0.197027		0.000000		0.330791		2.358281		31.930819		17.968442		5.723200		-0.875427		-0.807646		0.353343		1.255223		1.891537		0.002304		-0.000353		-0.000325		-18.774714		0.851521		-2.374419		-0.289171		1.264800		1.901333		0.003712		-0.000168		0.000469		
1.090965		-45.067853		666.098209		492.241227		0.094074		0.000000		0.311994		0.292982		-4.329721		-3.199544		62.361462		667.525693		396.810249		-0.201171		0.000000		0.328995		4.156006		44.486251		26.444826		5.722223		-0.869694		-0.833458		0.353404		1.255214		1.891451		0.002377		-0.000362		-0.000346		-18.763571		0.888958		-2.424233		-0.289103		1.264800		1.901274		0.005600		-0.000266		0.000724		
1.094273		-77.428231		823.487455		497.456261		0.093351		0.000000		0.322496		0.437511		-4.655702		-2.814765		93.159549		844.067605		464.934669		-0.196502		0.000000		0.339143		6.054524		54.859405		30.219804		5.690316		-0.831609		-0.813851		0.353477		1.255201		1.891366		0.003007		-0.000440		-0.000430		-18.721520		0.907515		-2.457816		-0.289029		1.264804		1.901211		0.007681		-0.000372		0.001009		
1.097581		-103.590048		1021.960936		419.408507		0.090944		0.000000		0.343909		0.024235		-0.238055		-0.102912		124.232298		1050.198250		456.039146		-0.183947		0.000000		0.359669		6.971338		58.932679		25.597850		5.640477		-0.762733		-0.756889		0.353553		1.255185		1.891290		0.003891		-0.000526		-0.000522		-18.661558		0.922160		-2.456503		-0.288958		1.264808		1.901146		0.008958		-0.000443		0.001180		
1.100889		-114.622349		1280.368935		279.297726		0.090165		0.000000		0.370353		-0.978583		10.940348		2.378719		148.332009		1301.512739		359.888181		-0.169825		0.000000		0.384674		5.664022		49.689124		13.757237		5.592412		-0.671279		-0.681408		0.353618		1.255168		1.891227		0.004624		-0.000555		-0.000564		-18.610920		0.949274		-2.416528		-0.288898		1.264813		1.901085		0.008914		-0.000454		0.001158		
1.104197		-105.561883		1587.318547		117.579965		0.092254		0.000000		0.395100		-1.710920		25.747053		1.901212		159.347640		1583.254153		193.912862		-0.161853		0.000000		0.407808		2.558645		25.393155		3.136106		5.561074		-0.577650		-0.605841		0.353664		1.255154		1.891176		0.005042		-0.000524		-0.000549		-18.595449		0.993220		-2.349692		-0.288853		1.264818		1.901033		0.007691		-0.000411		0.000972		
1.107505		-78.582031		1893.503968		-21.755085		0.095313		0.000000		0.414047		-1.637166		39.449747		-0.453328		155.602629		1844.031279		1.538564		-0.160854		0.000000		0.425593		-0.402922		-4.776182		-0.003364		5.548178		-0.509574		-0.539831		0.353688		1.255146		1.891136		0.005275		-0.000485		-0.000513		-18.623888		1.040942		-2.273526		-0.288823		1.264823		1.900992		0.005858		-0.000328		0.000716		
1.110813		-43.524587		2124.139610		-102.633397		0.097928		0.000000		0.425901		-1.012623		49.437268		-2.389052		140.558618		2013.606051		-158.787764		-0.162762		0.000000		0.436583		-2.004975		-28.739106		2.271558		5.539529		-0.490690		-0.485803		0.353689		1.255146		1.891105		0.005517		-0.000489		-0.000484		-18.685281		1.067677		-2.199482		-0.288809		1.264829		1.900965		0.004056		-0.000232		0.000478		
1.114121		-14.764677		2214.319700		-105.425424		0.099639		0.000000		0.430835		-0.365034		54.760845		-2.606997		121.979247		2042.435281		-234.620810		-0.164101		0.000000		0.440225		-2.339074		-39.167159		4.499393		5.509886		-0.524613		-0.444937		0.353679		1.255151		1.891079		0.005816		-0.000553		-0.000470		-18.757726		1.053143		-2.130140		-0.288803		1.264832		1.900946		0.002769		-0.000155		0.000314		
1.117429		-4.067847		2142.486941		-28.567422		0.099957		0.000000		0.428807		-0.104703		55.146609		-0.735072		108.678736		1928.582535		-200.187270		-0.163393		0.000000		0.435837		-1.908736		-33.872013		3.516780		5.435524		-0.591366		-0.419496		0.353666		1.255159		1.891058		0.006055		-0.000659		-0.000467		-18.822493		0.994564		-2.065532		-0.288801		1.264835		1.900931		0.002321		-0.000122		0.000255		
1.120737		-13.995706		1942.453257		108.238750		0.097955		0.000000		0.418957		-0.364509		50.595880		2.818978		106.091922		1717.699818		-68.347916		-0.161005		0.000000		0.422721		-0.893151		-14.482368		0.588339		5.310156		-0.657577		-0.410842		0.353657		1.255164		1.891041		0.006080		-0.000753		-0.000470		-18.869152		0.906103		-2.011521		-0.288803		1.264836		1.900921		0.002885		-0.000138		0.000308		
1.124045		-35.959039		1682.739308		266.727333		0.092700		0.000000		0.399967		-0.879218		41.152327		6.521750		112.072023		1475.378892		114.778720		-0.159804		0.000000		0.401523		1.040291		13.681071		1.072912		5.154027		-0.697646		-0.419231		0.353651		1.255165		1.891029		0.005840		-0.000791		-0.000475		-18.892872		0.804119		-1.981453		-0.288811		1.264834		1.900914		0.004358		-0.000186		0.000457		
1.127354		-56.248454		1433.197130		402.550886		0.084634		0.000000		0.372108		-1.106774		28.218734		7.920814		117.470170		1256.661790		291.129136		-0.163982		0.000000		0.375712		3.816800		40.807292		9.476151		5.004340		-0.709661		-0.446372		0.353643		1.255159		1.891021		0.009115		0.007785		0.028187		-18.887063		0.695501		-1.993715		-0.288825		1.264831		1.900912		0.006339		-0.000233		0.000669		
1.130662		-65.254959		1242.061520		482.285102		0.076020		0.000000		0.340978		-0.868525		16.536826		6.418274		111.897035		1091.262162		413.781032		-0.172324		0.000000		0.351504		5.890043		57.441901		21.791302		4.898105		-0.710639		-0.496010		0.353628		1.255150		1.891020		0.009196		0.012531		0.026702		-18.843632		0.581922		-2.057968		-0.288848		1.264828		1.900920		0.008309		-0.000256		0.000908		
1.133970		-62.393765		1126.998496		495.842007		0.068966		0.000000		0.317611		-0.618063		11.163822		4.911679		91.141726		984.211291		462.769768		-0.177159		0.000000		0.335363		5.822030		62.872179		29.562615		4.860404		-0.711525		-0.568406		0.353602		1.255139		1.891023		0.009050		0.017832		0.026521		-18.760937		0.474264		-2.166129		-0.288875		1.264826		1.900933		0.009911		-0.000250		0.001144		
1.137278		-53.167478		1079.990330		456.969164		0.065544		0.000000		0.311514		-0.626154		12.723125		5.382437		60.312144		924.835149		446.403464		-0.174099		0.000000		0.330572		4.003797		61.392244		29.633188		4.901365		-0.702257		-0.650835		0.353567		1.255131		1.891030		0.008299		0.022218		0.027267		-18.652021		0.399866		-2.289607		-0.288902		1.264826		1.900951		0.011087		-0.000237		0.001361		
1.140586		-43.060154		1076.791108		393.983913		0.067511		0.000000		0.321867		-0.687995		17.207389		6.295142		30.697161		895.661692		393.305446		-0.166193		0.000000		0.334858		1.928254		56.248554		24.700974		5.013830		-0.665228		-0.717992		0.353528		1.255127		1.891040		0.006864		0.024620		0.027872		-18.544728		0.391331		-2.385898		-0.288923		1.264826		1.900969		0.012044		-0.000254		0.001549		
1.143894		-34.287238		1090.183740		334.229255		0.073382		0.000000		0.339441		-0.630632		20.052461		6.147458		12.316538		880.892100		336.161229		-0.159076		0.000000		0.342739		0.699350		49.999523		19.081596		5.176343		-0.602055		-0.746906		0.353493		1.255127		1.891055		-0.001680		0.000195		0.000243		-18.470542		0.467867		-2.418065		-0.288935		1.264826		1.900986		0.013044		-0.000331		0.001708		
1.147202		-26.925374		1098.427101		293.838316		0.079065		0.000000		0.354242		-0.493968		20.150407		5.390523		8.174887		869.403306		298.498072		-0.155909		0.000000		0.349007		0.426680		45.381274		15.581369		5.354443		-0.546401		-0.737479		0.353466		1.255129		1.891075		-0.002221		0.000227		0.000306		-18.451906		0.617468		-2.373369		-0.288940		1.264823		1.901003		0.014064		-0.000471		0.001809		
1.150510		-21.053557		1090.667292		274.814294		0.081600		0.000000		0.360659		-0.366125		18.966785		4.779043		13.683015		855.421080		286.549582		-0.156301		0.000000		0.351189		0.698783		43.685623		14.633843		5.504382		-0.543250		-0.719241		0.353451		1.255132		1.891102		-0.002069		0.000204		0.000271		-18.491712		0.795891		-2.276218		-0.288941		1.264817		1.901024		0.014643		-0.000630		0.001803		
1.153818		-17.319311		1066.708200		269.960919		0.080449		0.000000		0.357958		-0.283276		17.446439		4.415283		20.928585		837.237067		291.192018		-0.158152		0.000000		0.349599		1.101272		44.052910		15.321819		5.578091		-0.611672		-0.733806		0.353445		1.255135		1.891137		-0.001431		0.000157		0.000188		-18.572885		0.944738		-2.182912		-0.288943		1.264810		1.901052		0.014239		-0.000724		0.001673		
1.157126		-16.235337		1033.914350		269.413363		0.076970		0.000000		0.349336		-0.245784		15.652589		4.078648		24.048459		816.086025		296.326350		-0.159189		0.000000		0.346188		1.313765		44.582533		16.188271		5.541022		-0.721402		-0.803214		0.353443		1.255136		1.891182		-0.000607		0.000078		0.000088		-18.666602		1.022295		-2.153081		-0.288948		1.264803		1.901089		0.012894		-0.000706		0.001487		
1.160434		-17.758384		1001.717649		265.983751		0.073192		0.000000		0.339754		-0.247997		13.989492		3.714592		22.275555		794.872645		289.900517		-0.158054		0.000000		0.343114		1.229142		43.860145		15.996379		5.387415		-0.810592		-0.912378		0.353439		1.255136		1.891234		0.000166		-0.000025		-0.000029		-18.744947		1.024451		-2.212557		-0.288961		1.264799		1.901130		0.011436		-0.000625		0.001350		
